# xmcd CD database file
#
# Track frame offsets:
#	150
#	26256
#	45306
#	66228
#	81287
#	98186
#
# Disc length: 1435 seconds
#
# Revision: 0
# Processed by: cddbd v1.5.1PL2 Copyright (c) Steve Scherf et al.
# Submitted via: CDex 1.51
#
DISCID=40059906
DTITLE=Justin Smith - Early
DYEAR=1900
DGENRE=Blues
TTITLE0=Getting There
TTITLE1=Sunny Cove AK.
TTITLE2=Stone Blues
TTITLE3=Doodle
TTITLE4=At The Rio
TTITLE5=Home
EXTD=
EXTT0=
EXTT1=
EXTT2=
EXTT3=
EXTT4=
EXTT5=
PLAYORDER=
